<svg xmlns="http://www.w3.org/2000/svg" xmlns:xlink="http://www.w3.org/1999/xlink" viewBox="0 0 1200 2700"><defs><style>.cls-1{isolation:isolate;}.cls-2,.cls-4{fill:#e0c3b9;}.cls-2,.cls-3,.cls-7,.cls-8{stroke:#b79f98;}.cls-2,.cls-23,.cls-24,.cls-26,.cls-3,.cls-7,.cls-8{stroke-miterlimit:10;}.cls-2,.cls-3,.cls-7{stroke-width:5px;}.cls-10,.cls-3,.cls-6{fill:#dbbfab;}.cls-5,.cls-8{fill:#b79f98;}.cls-7{fill:#fff;stroke-linecap:round;}.cls-8{stroke-width:2px;}.cls-9{opacity:0.2;}.cls-10,.cls-19,.cls-9{mix-blend-mode:multiply;}.cls-10{opacity:0.3;}.cls-11{fill:#8c6239;}.cls-12{fill:#754c24;}.cls-13{fill:#96663e;}.cls-14{fill:url(#radial-gradient);}.cls-15,.cls-26{fill:#603813;}.cls-16{fill:url(#radial-gradient-2);}.cls-17{fill:#e5998f;}.cls-18{fill:#593c25;}.cls-20{fill:#bca495;}.cls-21{fill:#c6827d;}.cls-22{fill:url(#linear-gradient);}.cls-23{fill:none;stroke:#000;}.cls-24{fill:#ccc;stroke:#999;}.cls-25{fill:url(#radial-gradient-3);}.cls-26{stroke:#fff;stroke-width:0.1px;}.cls-27{fill:#603839;}.cls-28{fill:url(#radial-gradient-4);}.cls-29{fill:#ccb1aa;}</style><radialGradient id="radial-gradient" cx="555.39" cy="262.06" r="14" gradientUnits="userSpaceOnUse"><stop offset="0" stop-color="#fff"/><stop offset="0.24" stop-color="#f9fdfe"/><stop offset="0.54" stop-color="#eaf7fc"/><stop offset="0.87" stop-color="#d0edf9"/><stop offset="1" stop-color="#c4e8f7"/></radialGradient><radialGradient id="radial-gradient-2" cx="556.57" cy="259.49" r="2.04" gradientUnits="userSpaceOnUse"><stop offset="0" stop-color="#675340"/><stop offset="0" stop-color="#fff"/><stop offset="1" stop-color="#603813"/></radialGradient><linearGradient id="linear-gradient" x1="614.27" y1="61.4" x2="761.42" y2="335.01" gradientUnits="userSpaceOnUse"><stop offset="0" stop-color="#8c6239"/><stop offset="0.42" stop-color="#855e38"/><stop offset="1" stop-color="#735335"/></linearGradient><radialGradient id="radial-gradient-3" cx="640.1" cy="276.71" r="14.27" xlink:href="#radial-gradient"/><radialGradient id="radial-gradient-4" cx="640.97" cy="272.24" r="2.68" xlink:href="#radial-gradient-2"/></defs><title>Artboard 1</title><g class="cls-1"><g id="Layer_4" data-name="Layer 4"><g id="_Group_" data-name="&lt;Group&gt;"><path id="_Compound_Path_" data-name="&lt;Compound Path&gt;" class="cls-2" d="M870.37,1241c-6.21-20.9-6.41-32.55-3.14-55.09s37-243.78,32.63-290.81-29.39-159.46-27.92-217.51S857.58,534.35,837.2,526.26s-138.69-42.13-161.47-56.82-5.23-97.89-5.23-97.89l-142,19.33s17.69,80.17,3.17,87.62c-28.94,14.86-84,23.72-111.07,39.15s-34.42,24-30,57.12,29.39,257.92,16.17,277-31.6,106.55-49.23,154.31-47.76,152.84-58.05,166.81-31.93,48.32-36.83,55.5-7.19,39.52-2.61,49.64,12.74,24.17,13.39,32-2,12.74,3.92,13.06,8.82-11.43,8.49-18.94-8.67-22-7.69-30.79,2.8-25.71,9.33-32.9,8.65,29.07,8.32,31.68,1.42,19.81,3.71,26.66,8.87,10.9,10.5,3.71,6.53-25.48,5.55-32.66.33-32,4.9-41.81,10.23-20.52,14-29.72l17.8-29c2,60.67,10,183.33,23.33,256.67s50,214,59.33,256,16,76.67,16,91.33S439,1862,445,1900s36.67,184.67,44,240.67,22,105.33,25.33,168,11.33,70.67,0,96S455,2514,445.67,2518.67s-16.2,18.67-12.43,24,20.43,15.33,40.43,14.67,23.33-10.67,34.67-10.67S513.67,2554,533,2554s24-.67,30.67-19.33,12-70,10.67-90,8.67-17.33,9.33-32.67-6.67-26.67-6.67-44,4.59-114.75,6.71-147.33c1-15.86,1.21-22.28,2.42-30.69,1,6.36,2,12.39,2.87,18,10.67,68,8,89.33,10,114s.68,51.33,0,92,27,80,23.67,113.33,10,36.14,35.08,41.78,50.58-20.45,54.58-29.78-4.67-70-12.67-96S655.67,2344,655,2338s6-10.67,4.67-14.67-6.67-12.67-6.67-12.67c1.33-8,28-270.67,30-382.67s-30-134-34-194,46-188,88-352,10-256-17-324c0,0-11.67-16.33-24-66.82-11.54-47.26,41.88-162.11,50.7-183.67s33-83.33,31.19-89.21c-1.09-3.58-.82-13-.44-19.81,3.63,18.11,32.39,161.05,38.81,178.49,6.86,18.62-8.82,87.2-4.9,187.15s16.26,119.54,6.66,131.3-21.36,22.54-28.21,29.39-6.86,49-5.88,54.87,4.9,36.25-1,42.13,9.25,12.08,14.91-1.63,2.07-28.74,3.7-35.93,4.25-16.66,12.74-11.1,4.25,44.74.65,53.24-13.72,30-13.06,36.58,3.59,13.39,8.49,10.78,43.7-18.62,54.8-39.52,15.79-36.57,14.49-47.34A254.68,254.68,0,0,0,870.37,1241Zm-320,49.89a196.62,196.62,0,0,0,.59-55.26c-15-31.67-28.36-40.46-30-45.86-1.18-3.81-.64-3.8-.64-3.8s10.17,30.4,41.75,30.53Z"/><path id="_Path_" data-name="&lt;Path&gt;" class="cls-3" d="M837.27,1359.77S853,1332,855,1324s5.5-28,5.5-28"/><path id="_Path_2" data-name="&lt;Path&gt;" class="cls-3" d="M859.15,1342.63S871.5,1315.5,872,1301.5"/><path id="_Path_3" data-name="&lt;Path&gt;" class="cls-3" d="M809.85,1374.32s24.65-39.25,29.73-53.74c3.17-9,5.42-29.65,5.42-29.65"/><path id="_Path_4" data-name="&lt;Path&gt;" class="cls-2" d="M446,594c0,8-11,28-17.67,39.33-14.82,25.2-35.39,64.43-27.36,102.55s15.45,42.84,19,60.12c12.69,61.24,23.64,149.16,11.11,171.13-20.45,35.87-68.43,151-77.78,206.54,0,0,8,189.84,25.56,269.16"/><path id="_Path_5" data-name="&lt;Path&gt;" class="cls-2" d="M589,2206c-10.67-68-32.67-192.67-40.67-294.67s-23.33-138.67-26.67-166-2-41.33,4-69.33,4.37-232.33,16.67-335.37c12.44-104.29,5.33-115.29,47.33-154.63"/></g><path id="_Path_6" data-name="&lt;Path&gt;" class="cls-2" d="M742.71,626.7c-1.13,48.8,23.82,121-13.7,159.63-39.06,40.27-92.42,24.26-132-5.72"/><path id="_Path_7" data-name="&lt;Path&gt;" class="cls-2" d="M415,780.61c30.71,21.58,83,12.92,104.87,0"/><g id="_Group_2" data-name="&lt;Group&gt;"><path id="_Path_8" data-name="&lt;Path&gt;" class="cls-4" d="M496.19,311.58a31.73,31.73,0,0,1-1.81-15.67c.68-4.31,2.32-8.41,3-12.72,1.28-7.79-.54-15.83.7-23.63.32-2,1.31-4.43,3.35-4.57,2.22-.16,3.48,2.46,4,4.62a59.16,59.16,0,0,1,1.17,9.1s-3.59,45.37-3.15,55.09c0,0-6.53-10-7.29-12.22"/><g id="_Group_3" data-name="&lt;Group&gt;"><path id="_Path_9" data-name="&lt;Path&gt;" class="cls-5" d="M496.92,311.38c-3.05-8.58-1.7-15.76.43-24.34,1.83-7.36.9-14.57,1.08-22,0-1.44-.26-5.25.69-6.47q5.14-2.34,5.63,1.29a25.08,25.08,0,0,1,.6,3.52,37.89,37.89,0,0,1,.5,5.82c0,2.2-.34,4.42-.51,6.61-1.19,15.85-3.21,32.13-2.61,48l1.4-.38c-2.5-3.83-5.51-7.78-7.22-12-.36-.88-1.81-.5-1.45.4,1.77,4.4,4.78,8.45,7.37,12.4a.76.76,0,0,0,1.4-.38c-.69-18.17,2.71-36.28,3.09-54.4.08-3.9,0-10.33-2.69-13.49-3.2-3.8-6.51-.17-7.24,3.46-.85,4.21-.45,8.68-.33,12.93a55.74,55.74,0,0,1-1.65,16.15c-2.14,8.13-2.82,15.25.06,23.33.32.9,1.77.51,1.45-.4Z"/></g></g><g id="_Group_4" data-name="&lt;Group&gt;"><path id="_Path_10" data-name="&lt;Path&gt;" class="cls-4" d="M524.68,195.48c-2,7.41-3.45,14.95-5.48,22.48-1.7,6.32-2.74,12.54-5.13,18.63-3.13,7.95-4.86,16.9-6.41,25.3-3.95,21.4-4.57,75.19-4.26,79.8,1.25,18.53,8.43,34.69,22.45,46.87a277.22,277.22,0,0,0,24.53,19.28c3.34,2.25,22.78,12.05,39.27,10.44,10.5-1,21.77-4.35,32.06-6.69,0,0,23-7,28.83-11.28,15.35-11.2,24.53-28.45,30.79-46.68l9.1-15.27c5-18.22,10.16-38,15.89-56,0,0,37.7-30.53,25.06-67.13S696.84,134.26,658,122s-104.22,19.89-112,26-21.3,47.42-21.3,47.42"/><g id="_Group_5" data-name="&lt;Group&gt;"><path id="_Path_11" data-name="&lt;Path&gt;" class="cls-5" d="M523.23,195.08c-2.91,10.84-5.2,21.85-8,32.73-2.55,9.94-6.27,19.3-8.23,29.44-2.56,13.24-3.45,26.69-4.12,40.14-1.2,24.31-4.78,51.95,7.34,74.2,8.15,15,23,26,36.62,35.63,11.27,8,26.71,13.23,40.53,12.71,10-.38,19.86-3.3,29.51-5.65,4.73-1.15,9.26-2.48,13.87-4a142.32,142.32,0,0,0,16.91-6.57c6.44-3.15,11.86-8.63,16.36-14.11A99.47,99.47,0,0,0,678,366.34c2.44-5.52,4.14-11.12,7.23-16.3,2.11-3.55,4.84-7.14,6.51-10.93,2-4.5,2.78-10,4.07-14.72q2.24-8.25,4.53-16.48,2.16-7.74,4.45-15.45c.83-2.76,1.36-7.09,3-9.37s4.58-4.21,6.52-6.28c8.26-8.8,15.22-19.21,18.81-30.81,4.78-15.47.85-29.21-4.86-43.78-5.87-15-12.88-29.64-22-42.93-8.91-13-20-24.86-33.83-32.64-12.48-7-26-9.55-40.23-8.73-27,1.57-54.31,11.31-78.17,23.69-6.86,3.56-11.11,6.65-14.82,13.62-5.51,10.33-9.53,21.55-13.42,32.57-.85,2.42-1.69,4.84-2.5,7.28-.6,1.84,2.29,2.63,2.89.8,2.37-7.2,5-14.34,7.74-21.4,2.2-5.59,4.5-11.15,7.24-16.5,1.67-3.25,3.43-6.92,6.4-9.18,6.5-4.95,15-8.19,22.42-11.37a232,232,0,0,1,39.58-13.11c13.78-3.14,28.61-5.12,42.61-2.26,14.94,3,28.17,12,38.61,22.81,11,11.41,19.41,25.11,26.34,39.29,3.51,7.19,6.63,14.56,9.47,22,2.77,7.32,5.61,14.64,5.91,22.55.52,13.81-5.39,26.91-13.48,37.8a93.38,93.38,0,0,1-9.56,10.94c-1.24,1.21-3.11,2.38-4.13,3.78-2.06,2.82-2.66,7.95-3.65,11.29-1.53,5.14-3,10.3-4.44,15.47q-1.91,6.86-3.77,13.74c-1.39,5.12-2.23,11-4.3,15.89-1.6,3.77-4.38,7.35-6.47,10.87-2.64,4.43-4.15,8.92-6.13,13.72-6.06,14.68-15.8,31.88-30.74,39a152.46,152.46,0,0,1-29.66,10.12c-9.6,2.33-19.53,5.4-29.47,5.57-8.75.15-17.51-2.3-25.57-5.54-13.75-5.54-25.84-15.91-36.48-26A65.08,65.08,0,0,1,504.87,341c-.36-9.11.1-18.32.38-27.42.41-13.44,1-26.91,2.37-40.29a187.58,187.58,0,0,1,3.14-19.51c2.06-9.75,5.87-18.89,8.2-28.55s4.56-19.62,7.17-29.33a1.5,1.5,0,0,0-2.89-.8Z"/></g></g><g id="_Group_6" data-name="&lt;Group&gt;"><path id="_Path_12" data-name="&lt;Path&gt;" class="cls-4" d="M703.4,340.61c1.16-5.48-1.62-11.15-1-16.72a31.43,31.43,0,0,1,2.72-8.62c1.26-3,2.75-6.31,4-9.27.83-2.61,5.46-28.85-.11-25.11s-8.41,18-11.6,30.75-6.55,26.66-11.83,34.93C685.6,346.58,701.38,350.16,703.4,340.61Z"/><g id="_Group_7" data-name="&lt;Group&gt;"><path id="_Path_13" data-name="&lt;Path&gt;" class="cls-5" d="M704.13,340.81c.52-3.59-.06-6.86-.58-10.41-.91-6.21.46-10.63,2.88-16.26,1.83-4.27,3.59-8,4.39-12.51a107,107,0,0,0,1.59-12.87c.11-2.13.74-6.48-1-8.21-5.12-5.24-10.88,15.57-11.42,17.54-4.3,15.89-6.39,33.85-15.09,48.11a.76.76,0,0,0,.45,1.1c6.63,1.45,16.55,1.44,18.73-6.49a.75.75,0,0,0-1.45-.4c-1.67,6.08-8.65,6.45-13.91,5.9-.55-.06-2,0-2.47-.36-.92-.81.07,1.81.62-.11.89-3.13,3.14-6.33,4.28-9.46,5.57-15.22,7.18-31.72,13.08-46.79.45-1.15,3.79-9.5,6.13-7.88,1.08.75.57,5,.53,6.17a97.76,97.76,0,0,1-1.58,13.35c-.87,5-3,9.19-5,13.84-1.42,3.39-2.78,6.77-2.84,10.49-.08,5,1.84,9.77,1.11,14.85C702.54,341.36,704,341.77,704.13,340.81Z"/></g></g></g><g id="Layer_3" data-name="Layer 3"><path id="_Path_14" data-name="&lt;Path&gt;" class="cls-6" d="M284.54,1314.8s6.12,2.64,7.55,0,2.14-7.63,2.14-7.63.36,1.43,2.5,1.43,4.67-3.93,4.67-3.93l2.11-72.13-28.92-5.36-2.14,55Z"/><path id="_Path_15" data-name="&lt;Path&gt;" class="cls-7" d="M597.5,1770c-2,2-14.14,18.5-18.57,21.5"/><g id="_Group_8" data-name="&lt;Group&gt;"><path id="_Path_16" data-name="&lt;Path&gt;" class="cls-8" d="M551.33,997c-3.81,5-3,21,1.33,21.41s4.33-9.41,3-16.41,2.85-74.2,0-94c-.62-4.33,3-11.67,3-11.67"/></g><g id="_Group_9" data-name="&lt;Group&gt;"><g id="_Group_10" data-name="&lt;Group&gt;" class="cls-9"><path id="_Path_17" data-name="&lt;Path&gt;" class="cls-6" d="M523.87,1667.45c2.47-33.11,6.39-66.63,6.73-99.24.75-71.86.89-144.47,11.36-215.72,3.91-26.58,5.37-56.65,10.57-85.31a181.42,181.42,0,0,0-1.54-31.51c-7.19-15.22-11-25.15-16.35-32a50.94,50.94,0,0,1-5.48-6.65c-2.71-3.19-4.65-5.31-5.15-7.12-1.3-4.74-4-19.23-4-19.23l-48.47.75s29.67-6.89,48.69,107.55c4,23.94,4.12,56.58,6,80.77,6,77.63-8.39,147.55-6.5,225.4.66,27.27,1.52,85.94.17,113.16Z"/></g><path id="_Path_18" data-name="&lt;Path&gt;" class="cls-10" d="M742.71,626.7c-.67,22.6,6.77,51.68,7.09,109.63.21,38.27-20.72,56.44-37.65,65.91S673.4,813,673.4,813c-44.1-.5-73.4-29.17-73.4-29.17.49-1-25-21.67-29.32-36.83-4.88-17.15-5.78-34.4,1.66-66,8.59-36.5,25.87-40.48,26-40.51l-.42-4a16.07,16.07,0,0,0-9.26,3.65c-1.3,1.13-2.65,2.45-4,3.73-3.51,3.44-7.48,7.34-10.73,7.34a3.84,3.84,0,0,1-1.06-.15c-2.5-.72-5.49-3.64-8.13-6.21-.76-.75-1.52-1.48-2.26-2.17-5.54-5.13-10-9.58-10.09-9.63l-2.88,2.77c.21.23,20.83,23.17,17.82,42q-.31,1.94-.67,4.28c-2.89,18.65-8.89,57.36-24.9,79.13-15.5,18.58-33.83,27.09-77.83,32.5-22.16,2.73-45.94-6.76-47.25-11.28,0,0,2.41,9.68,2.74,11.28,3,14.7,7.42,29.08,8.38,45.45,8.49,53.46,13,110.78,3.24,127.93-16.79,29.45-52.12,112.3-69.42,171.76,6.06-7.45,12.59-14.8,17.45-18.44,12-9,22.53-91.5,49.53-109.49s13.39-101.87,12.26-115.88c2.6-20-.89-40.66,2.06-56.08s2.88-23,31-34c0,0,46.18-16.37,60.33-24.39.92-.52,12.77-14,15.28-16.36,5.89-5.49,7.43-6.8,11-6.8a6.82,6.82,0,0,1,.7,0c9.67,1,26.22,25.65,26.86,26.51,31,41.36,103.33,49,105.72,65.62-12.85,40.3-25.83,94.61-25.61,107.75.26,15.35,6.41,34.21,24.33,61,39.71,59.41,40.29,144.59,43.62,230.59,2.33,60.21-40.45,256.34-66.33,368.57,17.65-63.57,43.61-144,67.08-235.57,42-164,10-256-17-324,0,0-11.66-16.33-24-66.82-11.54-47.26,41.38-162.11,50.2-183.67,7-17.05,28.45-69.14,33.45-89l-4.33-39.23S768.9,628,763.45,611,742.71,626.7,742.71,626.7Z"/></g><path id="_Path_19" data-name="&lt;Path&gt;" class="cls-10" d="M648.39,541.45c1.94,0,62.61-13.81,71.61-13.45l66.27-18.41s-86.14,14.13-95.09,17-39.51,9.64-48.65,8.21-17.39-3.9-18.11-3S640.62,541.34,648.39,541.45Z"/><path id="_Compound_Path_2" data-name="&lt;Compound Path&gt;" class="cls-10" d="M729.38,251.73c-.22-15-11.93-35.5-16.72-49.78-7.54-22.45-19.7-47.15-35-65.2-23.18-27.31-68.07-18.54-98.45-6.75-41.74,16.21-58.59,59.39-46.76,105.08,7.25-20.77,1.49-79.48,31.65-83.34-3.28,8.1-17.59,84.31-.76,75.68.3-.15.57-3.75.81-8.9,1.44,5.86,4.55,9.88,10.51,9.7-2.42-18.15-6.83-74.54,12.05-86.34-2.81,10.48-15.77,87.82,9.37,79.66a66.64,66.64,0,0,1-6.66-26.08,187.67,187.67,0,0,0,7.59,27,98.83,98.83,0,0,0,2.69-25.63,80.7,80.7,0,0,1-2.13,24.61c6.83-.4,8.49-3.71,9.47-8.9a64.79,64.79,0,0,0,.32,14.87c2.61-1.07,4.24-3.33,5.25-6.18-.23,1.77-.44,3.52-.6,5.19,4.43-.3,2.11-3.8,8.35,1.64q.22-2.77.37-5.54c.51,10.38,1.22,2.56,3.29,8.24a81.69,81.69,0,0,1-.92-24.26c1.08,10.4-.82,20.81,9.34,26.43-4.56-23.83-9.62-48.8-5.57-73.07-.93,11.28-1.54,23.27,1,33.75a153.77,153.77,0,0,1,2.24-32.89c1.33.6,2.66,1.25,4,2,1.38,16.1,2,32.29,1.79,48.44,5.69-12.46,4.86-29.42,3.33-45.18l.46.35A347,347,0,0,1,640.77,203c-.39,18.6-4.87,25.12,9,34.61a171,171,0,0,1-5.35-25.64,182.64,182.64,0,0,0,6.51,23.16c1.78-11.69.86-26.07-.42-40.6,5.65,23.93,17.83,60.87,24.36,66.49,8.27,7.14,16.12,21.84,15.77,27.7s3,32.59-5.08,43.74S663.39,354.2,669,365.61s-7.87,31-22,37.64-47.06,17.3-66.82,15.86c-22.68-1.65-45.39-21.9-45.39-21.9l-6.25-6.33s12.75,110,13.49,111.06,13.59,20,13.59,20-6.56-87.23-14.51-114.31a71.37,71.37,0,0,0,9.26,11.68c7.39,7,22,19.5,35.78,19.5s10.91-6,25.36-8.15,16.6-1.67,22-8.19,21.91-9,28-15.44,19.88-15.54,20.56-33.58,19.94-77.43,27.49-89.95a7.46,7.46,0,0,0,.57-1.24c.19,1.13.38,2.26.55,3.4C714.95,271.81,729.62,267.71,729.38,251.73ZM565.81,181.34c.07-.71.14-1.28.21-1.68C566,180.16,565.89,180.72,565.81,181.34Zm48.37,24.87c0-1.86-.06-3.62-.06-5.16A47.55,47.55,0,0,1,614.18,206.21Zm3.58-5c.35,1.53.67,3.07,1,4.61C618.23,203.32,617.83,201.45,617.76,201.17Z"/><path id="_Path_20" data-name="&lt;Path&gt;" class="cls-10" d="M680.56,269.56c-.54-1-7.5-1-12.05-2.36S658.2,256.12,655.3,254s-13.7-5-17.58-6.23-12.51.7-12.51.7c-1.54.57-3,1.14-4.37,1.71-11.25,4.69-13,9.39-13.22,10.44-.76,3.88,6.39,14.15,7.19,13.93s7.5,3.08,10.54,4.82,17.18,8.44,22.81,8.44c3,0,7.08-2.18,11.29-4.28a34.19,34.19,0,0,1,7.32-.72c2.79.29,3.91-1.34,4.35-3.2C677.55,278.37,681.07,270.53,680.56,269.56Z"/><path id="_Path_21" data-name="&lt;Path&gt;" class="cls-10" d="M575.07,297s15-21.46,12.89-37.78-11.45-14.27-11.45-14.27a33.27,33.27,0,0,1-14.19-.08c-8.3-1.7-13-6.26-24.45-2.64s-16,11-14.38,13.2,1.25,4.79,3.22,7.2,5,2.77,8.12,3.75,7.12,3.2,11.34,3.3-9.63-6-12-7.29.3-7,.3-7S542.75,245,548.83,245s15.54.52,20.28,5.49,11.78,10.35,11.78,13.18S581,279.2,575.07,297Z"/></g><g id="Layer_1" data-name="Layer 1"><g id="_Group_11" data-name="&lt;Group&gt;"><g id="_Group_12" data-name="&lt;Group&gt;"><path id="_Path_22" data-name="&lt;Path&gt;" class="cls-11" d="M613.9,198.81c-.3-1.55-.61-3.1-1-4.64C612.94,194.16,613.36,196.15,613.9,198.81Z"/></g></g><g id="_Group_13" data-name="&lt;Group&gt;"><g id="_Group_14" data-name="&lt;Group&gt;"><g id="_Group_15" data-name="&lt;Group&gt;"><path id="_Path_23" data-name="&lt;Path&gt;" class="cls-12" d="M665.1,441.22c-.56-19.81,2.09-39.28,3.13-58.92,0,0,12.11-23,11.53-25.23s11-19.75,13.15-27.81S702,291.61,706.1,280.9s11.28-22.78,14.5-26,16.73,96,13.37,118.5-13.51,82.15-32.72,86.07S666.11,476.9,665.1,441.22Z"/></g><g id="_Group_16" data-name="&lt;Group&gt;"><path id="_Path_24" data-name="&lt;Path&gt;" class="cls-12" d="M485.23,280.15c-6.64,16.4-7.08,34.56-7.35,52.25-.35,22.6-.58,45.34,3.11,67.65a354.06,354.06,0,0,0,8.22,35.23,183.05,183.05,0,0,0,9.08,18.42,55.88,55.88,0,0,1,5.38,10.54,10.8,10.8,0,0,1-.26,9,16.82,16.82,0,0,1-5.51,7.44A9.48,9.48,0,0,1,489,482l4.76.07c3.19-.26,6.32.94,9.2,2.32s5.72,3,8.85,3.67,6-.87,9-2.09c7.54-3.11,13.26-3.88,17.09-1.36,0,0-2.2-35.84-4.5-53.44s-1.62-29.88-6.1-37.78l-4.48-7.91L490.9,360Z"/></g><path id="_Path_25" data-name="&lt;Path&gt;" class="cls-10" d="M565.71,314.14c0-.3,8-10.3,11.25-7s2.78,8.26,3.22,9.58,2.31,1.49,5.26-1.18,9.73-7.86,13.66-5,3.93,4.91,5.45,7.68,5.18,4.55,5.8,4.29-5.53,4.91-9,4.2,2.41-3.3-3.75-4.64-8.58-3.93-9.42-.18-6.81,1.79-8-.45-3.22-.46-7.24-2.15S565.53,316.59,565.71,314.14Z"/><path id="_Path_26" data-name="&lt;Path&gt;" class="cls-13" d="M620.7,235.23c1.9-.46,17.54-2.14,22.23-2.14s18.08.8,22.63,3.88,9.11,10.71,11.78,16.19,3.21,12.73,3.21,12.73L679.09,263c-1.47-2.95-8.84-15.8-11.77-18.88s-9.66-3.75-13.14-3.62c-2.78.11-31.26,3.28-41.88,6.94a1.31,1.31,0,0,1-1-.18C611,247.08,618.63,235.74,620.7,235.23Z"/><g id="_Group_17" data-name="&lt;Group&gt;"><path id="_Path_27" data-name="&lt;Path&gt;" class="cls-14" d="M559.11,270.65a25.76,25.76,0,0,0,7.39-.28c2.41-.5,4.76-1.21,6.1-3.28.52-.81,1.55-2.46-1.95-5.79a29.69,29.69,0,0,0-15.61-7.7c-5.8-.94-12.22.49-16.27,4.76a4.38,4.38,0,0,0-1,1.43,3.5,3.5,0,0,0,1,3.55,10.3,10.3,0,0,0,3.34,2c1.42.61,6.91,3.5,8.24,4C553.21,270.41,559.11,270.65,559.11,270.65Z"/><g id="_Group_18" data-name="&lt;Group&gt;"><path id="_Path_28" data-name="&lt;Path&gt;" d="M559.11,271.1c3.83.24,17.86-.54,13.79-7.83-4.19-7.52-16.6-11.38-24.6-10.12-4.56.72-16,6.11-8.71,11.39a37.36,37.36,0,0,0,19.52,6.56c.58,0,.58-.87,0-.9a27.82,27.82,0,0,1-11.56-2.72,51.59,51.59,0,0,1-4.9-2.43l-1.46-.66-2.09-5.71c.44-1.5,4.82-3.39,5.88-3.77,6.69-2.45,14.41-.64,20.35,2.92,2.39,1.43,8.34,5.09,7.1,8.7-1.47,4.29-10,3.88-13.32,3.68C558.53,270.17,558.53,271.07,559.11,271.1Z"/></g></g><g id="_Group_19" data-name="&lt;Group&gt;"><path id="_Path_29" data-name="&lt;Path&gt;" class="cls-15" d="M553.42,255.56c-2.13.26-2.5,3.63-1.94,5.71a8.05,8.05,0,0,0,4.09,4.75,9.44,9.44,0,0,0,10.22-.65,5.16,5.16,0,0,0,2.09-4.25,7.49,7.49,0,0,0-.8-2.44S562.19,254.52,553.42,255.56Z"/></g><circle id="_Path_30" data-name="&lt;Path&gt;" cx="560.1" cy="259.94" r="3.76"/><g id="_Group_20" data-name="&lt;Group&gt;"><path id="_Path_31" data-name="&lt;Path&gt;" class="cls-16" d="M555.36,258.28c-.59.26-.74,1-.75,1.66a1.45,1.45,0,0,0,.22,1,1.46,1.46,0,0,0,.56.37,2.55,2.55,0,0,0,1.55.3,1.77,1.77,0,0,0,.76-.4,2.52,2.52,0,0,0,.44-3.22,1.35,1.35,0,0,0-.41-.41,1.66,1.66,0,0,0-.95-.16,2.57,2.57,0,0,0-1.42.42,1.15,1.15,0,0,0-.44,1.32"/></g><g id="_Group_21" data-name="&lt;Group&gt;"><g id="_Group_22" data-name="&lt;Group&gt;"><path id="_Path_32" data-name="&lt;Path&gt;" d="M574.17,255.3a26.77,26.77,0,0,0-20.35-10.68c-9.22-.51-16.09,5.15-21.66,12.1-.3.37.23.91.53.53,4.81-6,11.25-11.83,19.26-11.94a26.13,26.13,0,0,1,21.58,10.37c.29.38.94,0,.65-.38Z"/></g></g><g id="_Group_23" data-name="&lt;Group&gt;"><path id="_Path_33" data-name="&lt;Path&gt;" class="cls-13" d="M580.81,236c-4.24-5.09-10.88-7.38-17.17-9.46l-12.07-4a12.12,12.12,0,0,0-2.9-.7,11.11,11.11,0,0,0-5.18,1.27c-7.42,3.29-14.28,8.12-19.13,14.64a6.83,6.83,0,0,0-1.76,4.42l.49-1.07c1.79-3.48,5.51-5.44,9-7.19l3.52-1.76a20.08,20.08,0,0,1,7.06-2.49c3.45-.3,7.67,0,10.8,1.53s29.89,11.86,30.89,11.8C584.37,243,581.19,236.46,580.81,236Z"/></g><g id="_Group_24" data-name="&lt;Group&gt;"><path id="_Path_34" data-name="&lt;Path&gt;" d="M571.43,262a31.09,31.09,0,0,0-2-2.46c-3.4-3.59-8.32-5.36-13.21-6.1a29,29,0,0,0-5.13-.36c-6.39.18-12.45,3-18.83,3.38a10.2,10.2,0,0,1-6.38-1.35c2.06,2.53,4.19,5.13,7.06,6.68,1.53.83,3.24,1.33,4.72,2.24,1,.6,1.84,1.37,2.8,2a19.55,19.55,0,0,0,3.84,1.9A43.33,43.33,0,0,0,560,270.81a56.33,56.33,0,0,1-11.47-2.73,17.65,17.65,0,0,1-4.56-2.2,7.49,7.49,0,0,1-3-4,20.15,20.15,0,0,1,17.49-6,25.63,25.63,0,0,1,4.52,1.18C568.06,258.82,572.55,263.42,571.43,262Z"/></g><g id="_Group_25" data-name="&lt;Group&gt;"><path id="_Path_35" data-name="&lt;Path&gt;" d="M545.35,348.15a24.57,24.57,0,0,0,5.39,1.84c1.59.42,3.64-.71,5.29-.69,4.71,0,8.84-1.32,13.39-.08,1.83.5,5,3,6.78,3.52,7,2,12.31-1,19.46.33,2.47.44,6.06,2.34,8.31,3.45,4.09,2,8,5.17,12.59,4.86"/></g><g id="_Group_26" data-name="&lt;Group&gt;"><path id="_Path_36" data-name="&lt;Path&gt;" class="cls-17" d="M545.35,348.15c3-3.73,7.06-5.48,11.38-7.85s9.33-2.35,14.09-3.1a5.74,5.74,0,0,1,2-.08,7.49,7.49,0,0,1,2.7,1.53c2.73,1.92,6.25,3.75,9.52,3.11,2.16-.42,4.34-1.42,6.47-.88l1.5.29a26.75,26.75,0,0,1,10.41,6.1,50.58,50.58,0,0,1,3.94,4c2.12,2.32,4.78,3,6.9,5.36a9.36,9.36,0,0,1,1.62,2.16,4.73,4.73,0,0,1,.12,3.8l-.77,0a44.73,44.73,0,0,0-8.44,2.76c-1.18.49-2.31,1.08-3.5,1.54a34.75,34.75,0,0,1-6.26,1.57,89,89,0,0,1-9,.83,42.37,42.37,0,0,1-32.31-10.93c-1.46-1.38-2.81-2.86-4.27-4.23a56.46,56.46,0,0,0-5.24-4.41A1.83,1.83,0,0,1,545.35,348.15Z"/></g><g id="_Group_27" data-name="&lt;Group&gt;"><g id="_Group_28" data-name="&lt;Group&gt;"><path id="_Path_37" data-name="&lt;Path&gt;" class="cls-5" d="M579.86,235.49c10.89,14.48,8.23,31.07,1.55,46.66-.19.44.46.82.65.38,6.79-15.85,9.51-32.71-1.55-47.42-.29-.38-.94,0-.65.38Z"/></g></g><g id="_Group_29" data-name="&lt;Group&gt;"><g id="_Group_30" data-name="&lt;Group&gt;"><path id="_Path_38" data-name="&lt;Path&gt;" class="cls-5" d="M568.23,316.86c-2.35-2.81-4.59-6.24-2.43-10,1.13-2,3.34-3.62,5-5.08.51-.44-.23-1.18-.74-.74-2.27,1.94-5.4,4.28-6,7.4-.78,4.09.93,6.17,3.39,9.12.43.52,1.17-.23.74-.74Z"/></g></g><g id="_Group_31" data-name="&lt;Group&gt;"><g id="_Group_32" data-name="&lt;Group&gt;"><path id="_Path_39" data-name="&lt;Path&gt;" class="cls-5" d="M606.08,324.85c8.67-3.1,6.39-14.82,3-21.17-.32-.6-1.23-.07-.91.53,3,5.56,5.6,16.78-2.37,19.63-.63.23-.36,1.24.28,1Z"/></g></g><g id="_Group_33" data-name="&lt;Group&gt;"><g id="_Group_34" data-name="&lt;Group&gt;"><path id="_Path_40" data-name="&lt;Path&gt;" class="cls-18" d="M580.62,319.25a.15.15,0,0,0,0-.3.15.15,0,0,0,0,.3Z"/></g></g><g id="_Group_35" data-name="&lt;Group&gt;"><g id="_Group_36" data-name="&lt;Group&gt;"><path id="_Path_41" data-name="&lt;Path&gt;" class="cls-18" d="M610,430.22a.15.15,0,0,0,0-.3.15.15,0,0,0,0,.3Z"/></g></g><g id="_Group_37" data-name="&lt;Group&gt;"><g id="_Group_38" data-name="&lt;Group&gt;"><path id="_Path_42" data-name="&lt;Path&gt;" class="cls-18" d="M614,220a.15.15,0,0,0,0-.3.15.15,0,0,0,0,.3Z"/></g></g><g id="_Group_39" data-name="&lt;Group&gt;"><g id="_Group_40" data-name="&lt;Group&gt;"><path id="_Path_43" data-name="&lt;Path&gt;" class="cls-11" d="M788.93,423.81l0,0S788.94,423.45,788.93,423.81Z"/><g id="_Group_41" data-name="&lt;Group&gt;"><path id="_Path_44" data-name="&lt;Path&gt;" class="cls-18" d="M788.8,423.88l0,0a.15.15,0,0,0,.28-.08c0-.06,0-.12,0-.18s-.27-.22-.29,0a1.76,1.76,0,0,0,0,.19c0,.19.29.19.3,0v-.11l-.29,0c0,.06,0,.12,0,.18l.28-.08,0,0C789,423.57,788.69,423.72,788.8,423.88Z"/></g></g><g id="_Group_42" data-name="&lt;Group&gt;"><path id="_Path_45" data-name="&lt;Path&gt;" class="cls-11" d="M706.7,316.78a11.17,11.17,0,0,0,.34-1.26C706.47,317.32,706.15,318.34,706.7,316.78Z"/><g id="_Group_43" data-name="&lt;Group&gt;"><path id="_Path_46" data-name="&lt;Path&gt;" class="cls-18" d="M706.84,316.82a12.5,12.5,0,0,0,.34-1.26.15.15,0,0,0-.29-.08c-.16.5-.32,1-.47,1.51a2,2,0,0,0-.15.56.15.15,0,0,0,.28.08,3.1,3.1,0,0,0,.3-.8c.06-.18-.23-.26-.29-.08a2.81,2.81,0,0,1-.27.73l.28.08a3,3,0,0,1,.18-.59l.44-1.4-.29-.08a12.5,12.5,0,0,1-.34,1.26C706.49,316.93,706.78,317,706.84,316.82Z"/></g></g></g><g id="_Group_44" data-name="&lt;Group&gt;"><g id="_Group_45" data-name="&lt;Group&gt;"><path id="_Path_47" data-name="&lt;Path&gt;" class="cls-18" d="M503.3,486.92a.15.15,0,0,0,0-.3.15.15,0,0,0,0,.3Z"/></g></g><g id="_Group_46" data-name="&lt;Group&gt;"><g id="_Group_47" data-name="&lt;Group&gt;"><path id="_Path_48" data-name="&lt;Path&gt;" class="cls-18" d="M700,289.08a.15.15,0,0,0,0-.3.15.15,0,0,0,0,.3Z"/></g></g><g id="_Group_48" data-name="&lt;Group&gt;"><g id="_Group_49" data-name="&lt;Group&gt;"><path id="_Path_49" data-name="&lt;Path&gt;" class="cls-18" d="M592.21,216.63a.15.15,0,0,0,0-.3.15.15,0,0,0,0,.3Z"/></g></g><g id="_Group_50" data-name="&lt;Group&gt;" class="cls-19"><path id="_Path_50" data-name="&lt;Path&gt;" class="cls-20" d="M579.19,316.25a10.85,10.85,0,0,0-.91-4.1,3.22,3.22,0,0,0-1.69-1.9,3.78,3.78,0,0,0-3,.75l-1.8,1.05c-.42.25-.91.61-.84,1.09a1.19,1.19,0,0,0,.58.75,8.37,8.37,0,0,0,4.12,1.49c.78.06,1.76.13,2.05.87"/></g><g id="_Group_51" data-name="&lt;Group&gt;" class="cls-19"><path id="_Path_51" data-name="&lt;Path&gt;" class="cls-20" d="M592.17,317.57c-.06-.12,0-.25.12-.34a8.37,8.37,0,0,1,4.57-3,4.37,4.37,0,0,1,4.74,2.08,1.63,1.63,0,0,1-.12,1.84,1.85,1.85,0,0,1-.53.33,8.94,8.94,0,0,1-7.91-.28"/></g><g id="_Group_52" data-name="&lt;Group&gt;"><g id="_Group_53" data-name="&lt;Group&gt;"><path id="_Path_52" data-name="&lt;Path&gt;" class="cls-21" d="M545,348.67c5.66,2.62,10,1.41,16.09.89,4.54-.39,7.92-.07,12,2.29a15,15,0,0,0,6.44,2.13c3.16.31,6.28-.29,9.42-.51a22.7,22.7,0,0,1,12.48,2.48c4.93,2.35,9.43,6,15.09,6a.6.6,0,0,0,0-1.2c-6.22-.08-11.55-4.77-17.14-7.09s-10.84-1-16.66-.85c-4.5.15-7.11-1.15-10.87-3.13a13.64,13.64,0,0,0-5.82-1.6c-6.93-.41-13.84,2.57-20.41-.48-.7-.32-1.31.71-.61,1Z"/></g></g><g id="_Group_54" data-name="&lt;Group&gt;"><path id="_Path_53" data-name="&lt;Path&gt;" class="cls-22" d="M606.35,116.21c3.67.65,7.4-.83,11.11-1.25,8.64-1,17.38-1.95,26-.79s17.23,4.69,22.82,11.34c5,6,7.15,13.8,9.29,21.31,9.38,33,19.73,65.8,34.55,96.77l3.87,8.12c19.78,47.1,17.39,101.7,40.1,147.46l1.1,1.39a56,56,0,0,0,54.67,25.54,14.57,14.57,0,0,1-12.79-2.42c-9.8-7.53-17.21-18.26-19.9-30.32l6.78,11.6a32.58,32.58,0,0,0,10.31,10l3.4,4H797c-7.78-8-11-19.14-13.52-30,0,0-1.06-8.79,0-5.31s7.33,4.33,7.33,4.33c-6.92-21.43-6.53-44.44-9.88-66.71-4.42-29.37-15.33-57.3-26.16-85-11-28.15-22.86-57.46-45.71-77.26,0,0-29.28-30.15-43.91-43.46-6-5.48-12.35-11.05-20.12-13.47-6.9-2.15-14.44-1.59-21.32.6s-13.17,5.95-19,10.16l-9.94,6S602.71,115.57,606.35,116.21Z"/></g><path id="_Path_54" data-name="&lt;Path&gt;" d="M562.15,256.06s-8.46-3.35-10.59-7.35c0,0,2.11,4.92,3.94,5.23,0,0-2.75-1.07-5.08-5.68,0,0,.82,4.92,2.75,5.49s-5.52-3.58-6.61-6.29c0,0,1.19,5.39,3.36,6.15a11.15,11.15,0,0,1-3.79-3.81,3.76,3.76,0,0,0,1.15,2.78c1.32,1.48-3,.1-5.83-3.41s-1.63-4.17-1.63-4.17-1,4.54,4.38,8.49a8.32,8.32,0,0,1-5.71-6.67s-.54,2.73,3.76,7.05c0,0-5.23-3.28-5.84-5.54,0,0,.05,3.24,5,6.37,0,0-4.6-1.29-6.19-4.2,0,0,.44,3.16,3,4.25s-4.19-2.12-5.52-3.45c0,0,2.28,3.62,4,4.19s-5.8-2.72-6.28-3.52a9.54,9.54,0,0,0,4.41,4.71c1.38.65,1.43,1.54,1.43,1.54s-3.89-.65-5,.23a8.08,8.08,0,0,1,4.27,1.32s-2.07-.63-2.84.21c0,0,1.44-.23,3.82,1.18,0,0-1.52-.55-2.32-.07a15.12,15.12,0,0,1,3.55.95,4.54,4.54,0,0,0-2.08.24c-1.21.41,1.81.09,2.93.62,0,0-2.08.6-2.72.87a11.22,11.22,0,0,1,3.68,0,4.79,4.79,0,0,0-2.12.62,11.93,11.93,0,0,1,3.37.06,5.52,5.52,0,0,0-2.4,1.34s2.42-1.2,3.92-.32,7.64,4.52,11.58,4.72c0,0-7.62-1.26-11.57-5.28s-4.48-5.68-4.48-5.68S547.7,250.18,562.15,256.06Z"/><path id="_Path_55" data-name="&lt;Path&gt;" class="cls-23" d="M615.17,265.81c3.12-.63,8.49-5.81,10.79-7.07,2.73-1.5,12.33-7.66,23.4-.43,10.18,6.65,11.25,9.18,11.49,12.22s1.63,6.61.83,7.42"/><path id="_Path_56" data-name="&lt;Path&gt;" class="cls-24" d="M473.44,2536.5c8.13,1.25,57.56-2,72.22-15.91s30.93-91.16,30.93-91.16a35.83,35.83,0,0,0,5-34.77s16.19,14.83,15.5,45.33c-.26,11.48-14.05,30.67-14.05,30.67-3.33,8-15.85,56.84-20.26,74.09s-79.74,43.91-104.41,46.58-50.67-8-54-15.33,16-46.81,26.67-55.41a156.09,156.09,0,0,1,18-12.28l53.38-81s-47.84,81.24-49.12,82.94S441.89,2531.67,473.44,2536.5Z"/><path id="_Path_57" data-name="&lt;Path&gt;" class="cls-24" d="M712.83,2476.85h0S689.5,2409.5,688,2399s-13.94-17-13.94-17,7.78,32.53,15.33,51.14l0,.09.59,1.53c6.08,16.37,11.18,49.87,13.29,55.2l-.08.28c-8.56,15.82-19.33,38.62-31.72,40.26s-32.65-8-48.49-28.52c-8.85-19.66-17.9-76.91-21.66-102.68a80.68,80.68,0,0,0-1.76-12.8,9.88,9.88,0,0,0-2.09,0h0c-5,1-2.35,19.77-2.12,39.09.24,20.56,12.87,64.84,12.87,64.84s7.43,45.13,13.85,59.51,45,52.35,60.89,49.36,25.06-28.81,33.56-51C722.78,2532.07,718,2489.06,712.83,2476.85Z"/><g id="_Group_55" data-name="&lt;Group&gt;"><g id="_Group_56" data-name="&lt;Group&gt;"><path id="_Path_58" data-name="&lt;Path&gt;" class="cls-25" d="M658.47,280.36c.74-3.55-10.31-10.18-16.2-11.65s-17,2.95-17.41,3.35-2.41.8-2.88,1.21a1.26,1.26,0,0,0,.2,1.74,6.5,6.5,0,0,1,1.74,1c1,.8,7.59,6.14,15.71,8.47S658.08,281,658.08,281C658.52,280.7,658.47,280.36,658.47,280.36Z"/></g><path id="_Path_59" data-name="&lt;Path&gt;" class="cls-26" d="M639.72,268.41s-4.73,3-2,7.62a9.79,9.79,0,0,0,8,4.86c.71,0,8.48-.52,9.46-6.24S640.79,265.13,639.72,268.41Z"/><circle id="_Path_60" data-name="&lt;Path&gt;" cx="646.09" cy="273.3" r="3.97"/><path id="_Compound_Path_3" data-name="&lt;Compound Path&gt;" class="cls-27" d="M667.82,276.78c-.12-.4-.5-.6-1.12-.6h-.19c-1.8,0-6.23-2.64-10.51-5.2-2.07-1.23-4.21-2.51-6.2-3.59a19.64,19.64,0,0,0-9.31-2.12,22.16,22.16,0,0,0-10,2.12c-1.93,1.1-6.73,2.94-13.5,5.2l-.34.11c-.73.25-1.08.62-1,1.1,0,.66.87,1.15,2.46,1.45a31.53,31.53,0,0,1,8.89,3.67l3.75,2.32c.92.62,1.85,1.38,2.75,2.06,3.94,3,8.94,3.69,12.44,3.69h0c5.75,0,11.26-1.77,13.72-3.41.45-.3.92-.67,1.4-1C666.64,278.92,668.11,277.73,667.82,276.78Zm-9.88,3.47,0,.1v0a.29.29,0,0,1-.11.13c-.07,0-7.13,4-14,4a14.74,14.74,0,0,1-4-.53,39.92,39.92,0,0,1-8.47-3.61L627.55,278c-1.63-1.11-2.74-2-3.21-2.36l-.09-.07a5.18,5.18,0,0,0-1.47-.89,2.58,2.58,0,0,1-.34-.16.75.75,0,0,1-.19-.49.5.5,0,0,1,.08-.38,6.46,6.46,0,0,1,1.24-.49,4.88,4.88,0,0,0,1.64-.72c.6-.38,8.45-3.52,14.28-3.52a11.05,11.05,0,0,1,2.65.28C648.51,270.83,658.54,277.35,657.94,280.25Z"/><path id="_Path_61" data-name="&lt;Path&gt;" d="M666.59,276.71c-2.77.1-10.62-5.37-17.05-8.85s-15.44-1.87-18.75,0-13.2,5.11-13.93,5.36c-1.39.47-.54,1.16,1.34,1.52a32.7,32.7,0,0,1,9,3.73c-1.77-1.2-3-2.16-3.34-2.46a6.5,6.5,0,0,0-1.74-1,1.26,1.26,0,0,1-.2-1.74c.47-.4,2.48-.8,2.88-1.21s11.52-4.82,17.41-3.35,16.94,8.1,16.2,11.65c0,0,.05.33-.39.63,0,0-10.32,5.8-18.45,3.48a40.68,40.68,0,0,1-8.58-3.66c.89.6,1.82,1.25,2.77,2,7.84,5.9,21.26,3.12,25.54.26S669.36,276.61,666.59,276.71Z"/><path id="_Path_62" data-name="&lt;Path&gt;" d="M636.06,267.2s9.91,0,13.66-3.26c0,0-4.09,4.16-6.07,3.75,0,0,3.21,0,7.41-3.75,0,0-2.79,4.67-5,4.48s7-1.44,9.21-3.76c0,0-3.35,5-5.85,4.91a12.15,12.15,0,0,0,5.36-2.36,4.09,4.09,0,0,1-2.26,2.36c-1.93,1,3,1.27,7.26-1.15s3.3-3.58,3.3-3.58-.8,5-7.81,6.87a9.06,9.06,0,0,0,8.44-4.5s-.54,3-6.61,5.66c0,0,6.61-1.25,8.12-3.3,0,0-1.34,3.26-7.59,4.49,0,0,5.18.51,7.95-1.81,0,0-1.7,3-4.73,3.12s5.09-.49,7-1.31c0,0-3.75,2.77-5.71,2.67s7-.46,7.77-1.08-2.41,2.77-6.34,3c-1.66.11-2.06,1-2.06,1s4.21.88,5,2.22a8.8,8.8,0,0,0-4.85-.36s2.35.18,2.8,1.34c0,0-1.37-.81-4.35-.31,0,0,1.76,0,2.38.85a16.47,16.47,0,0,0-4-.45,4.94,4.94,0,0,1,2,1.07c1.07.89-1.87-.62-3.21-.54,0,0,1.87,1.43,2.41,2A12.22,12.22,0,0,0,656,284a5.21,5.21,0,0,1,1.91,1.47,13,13,0,0,0-3.45-1.27,6,6,0,0,1,1.91,2.31s-2-2.18-3.85-1.87-9.54,1.56-13.63.2c0,0,8.24,1.74,13.83-.77s6.8-4,6.8-4S653.05,267,636.06,267.2Z"/><circle id="_Path_63" data-name="&lt;Path&gt;" class="cls-28" cx="640.97" cy="272.24" r="2.68"/></g></g><path id="_Path_64" data-name="&lt;Path&gt;" class="cls-29" d="M650.86,1698.33l.58-1.35c.16-1,.33-2.05.5-3.09Z"/></g><g id="_Group_57" data-name="&lt;Group&gt;"><g id="_Group_58" data-name="&lt;Group&gt;"><path id="_Compound_Path_4" data-name="&lt;Compound Path&gt;" class="cls-11" d="M665.36,467.28a21.94,21.94,0,0,1-5.8,14.29c-3.49,3.87-9.56,5.84-14.08,3.25,0,0,8.11,6.42,11.9,9.54,2.85,2.34,5.32,5.69,6.73,5.76S674.52,498,679.59,489l.92-.51a21.78,21.78,0,0,1-16.89,12.38c14.54,7.68,51.41,11.61,67.71,9.42,5.5-.74,10.5-10.38,10.5-10.38a19.73,19.73,0,0,1-1.39,6.25c1-1.56,2.9-2.25,4.69-2.71a44.2,44.2,0,0,1,14.76-1.27s-3.74,2.26-5.07,2.83c-1.7.73-7.07,2.22-7.07,2.22a36.45,36.45,0,0,0,26.67-9.68l-2.5,0a15.9,15.9,0,0,0,9-3.14s-3.74,1.15-4.13,1.15c-3.4,0-5.76-3.64-8.23-6a30.42,30.42,0,0,0,9.65,3.31c3,.48,6.47.29,8.47-1.81a13.78,13.78,0,0,0,7.85-1c1.39-.61,6.78-7.32,4-4.58s-8.69,0-8.69,0a19.11,19.11,0,0,1-5.83-2.9c3.72,1.83,6.16-2.17,6.16-2.17-1.44.19-2.23-1.61-2.53-3l-1.09-5.16s3.49,7.41,8.28,2.43A14.51,14.51,0,0,0,796.3,472c-1.85.12-5.13-2.07-7-3.4,2.48,1.32,5.93.51,5.93.51v-.36l-.25-2a35.57,35.57,0,0,0,4.12.72l-1.5-.76a24.4,24.4,0,0,1-2.73-2.37v-4.73l0,0a16.32,16.32,0,0,0,13.62,1.09l.83-1.38a74,74,0,0,1-20.41-33.19c0-1.41,0-2,0-2.28L757.17,377l6.28-16.48L702.1,177.9l-34.79-57.16-20.77-10.46L623.74,110l-37.58,11.64h0a26.85,26.85,0,0,1-6.07,0c-3-.4-9.82,2.37-12.36,4.44s-22.62,11.31-30.08,26c-11.87,23.36-16.6,50.65-10,76l.52-1.1a32.82,32.82,0,0,1,1.81-3.9l-.14-.75c-.66-4,2.37-25.89,2.37-25.89a88,88,0,0,1,21-49.37,9.14,9.14,0,0,1,3.29-2.44c1.26-.53,2-1.06,2.74.09a0,0,0,0,0,.06,0,133.05,133.05,0,0,0-7.06,76,4.34,4.34,0,0,0,.91,0,40.94,40.94,0,0,0,5.38-.32l-.05-1.21c-.5-6.13-1.84-28,1.7-39l1-7.6c-1.77,15.68-3.44,32.08.74,47.09l1.18.43a29.11,29.11,0,0,0,6.39,1h.32c-3.08-23.07-.58-46.52,4.52-69.23,1-4.5,4.42-14.46,7.53-17.11h0c-5.43,20.26-10.43,41.88-5.16,62.07.62,2.36,6.81,12.25,6.65,18.49l7.88-.9s-5.82-10.1-6.66-26.08c0,0,4.55,20.53,7.34,26.42l.24.55A83.52,83.52,0,0,0,594.68,191l.18-1.2a80.7,80.7,0,0,1-2.13,24.61h.34q2.75-.14,5.5,0h.27c1.2-4.15,3.35-11.81,5.3-19.73-.85,4.48-1.61,8.67-2,11.22a46.52,46.52,0,0,0,.37,14.49l.94-.22c.6-.21,1.61,0,2.07-.28l.25-.43s.26-1.11.26-1.11c.54-3.7,1.66-7.3,2.1-11a119.24,119.24,0,0,0,1.14-13.27,15.48,15.48,0,0,1,0,2.27l-2.14,23,0,.09a14,14,0,0,1,2.51.06s.1-.54.27-1.46a15,15,0,0,1,5.57,3s.23-2.81.37-5.54c.09,1.79.15,3.59.16,5.38l.2.83a14.53,14.53,0,0,1,1.16,1.3l1.78.72a81.7,81.7,0,0,1-.92-24.26l1.94,18.69s.13,3,2.37,4.06a24.32,24.32,0,0,1,5,3.69c-3.48-18.17-6.88-36.51-7.08-55A110.38,110.38,0,0,1,622,152.86s-2,23.67.27,33.45l.72.3c-1.07-19.78,4.68-46,4.68-46a494.06,494.06,0,0,1,3.31,63.5,35.3,35.3,0,0,1,2.67-3.84s1.67-38-1.31-59v-2.53a325.84,325.84,0,0,1,3.4,63.66c-.37,8.21-1,16.44-.84,24.64,0,0,6.94,1.5,10,3.58l-1.48-4.34q-2.41-11.21-4-22.57c1.2,8.54,4.21,16.11,6.69,24.42l.41-9.06c-3.26-7.28-3.8-15.23-4.06-23.28L643,147.6c4.85,13.84,17.71,74.69,17.71,74.69L670,246.58l9,9.56a198.5,198.5,0,0,1-15.78-64.54l-.3-15c3.93,25.46,18.41,76.43,18.41,76.43.89,2.83,3.32,8.57,3.32,8.57.92-17.76,1.41-36.38-5.11-52.92A109.07,109.07,0,0,1,675,193.44c5.73,15.79,11.33,31.69,14.87,48.11s5,33.47,2.32,50.05l4.72-23.87-1.77,10.18a122.1,122.1,0,0,0,6.19-23.4,430.91,430.91,0,0,1,7,45s-.24,11.08-1.31,16c.86-2.73,2.32-7.23,2.32-7.23,2.4-12.14,13,23.5,5.2,50.51-4.07,14.12-9.23,31.2-22,46.32C677.53,423,665.39,439.56,665.36,467.28ZM612.94,194.16c.36,1.54.67,3.09,1,4.64C613.36,196.15,612.94,194.16,612.94,194.16Z"/></g></g><g id="_Group_59" data-name="&lt;Group&gt;"><path id="_Path_65" data-name="&lt;Path&gt;" class="cls-11" d="M530.13,392.22c-1.6-1.35-3-2.59-4.27-3.66-14-12.17-21.21-28.34-22.45-46.87-.31-4.61.31-58.4,4.26-79.8,1.55-8.4,3.28-17.35,6.41-25.3,2.39-6.09,3.44-12.31,5.13-18.63,2-7.53,3.44-15.07,5.48-22.48l.47-1.4a97.44,97.44,0,0,0,2.46,34l.52-1.1a32.82,32.82,0,0,1,1.81-3.9l-.14-.75c-.66-4,2.37-25.89,2.37-25.89a88,88,0,0,1,21-49.37,9.14,9.14,0,0,1,3.29-2.44c1.26-.53,2-1.06,2.74.09a0,0,0,0,0,.06,0,133.05,133.05,0,0,0-7.06,76,4.34,4.34,0,0,0,.91,0,40.94,40.94,0,0,0,5.38-.32l-.05-1.21c-.5-6.13-1.84-28,1.7-39l1-7.6c-1.77,15.68-3.44,32.08.74,47.09l1.18.31a23.75,23.75,0,0,0,6.39.91h.32c-3.08-23-.51-46.39,4.58-69.1,1-4.5,4.6-14.39,7.6-17v0c-6,20.26-10.5,41.9-5.22,62.09.41,1.59,3.31,6.58,5.14,11.56l3.49-12.45a71.88,71.88,0,0,1-.81-7.59s.52,2.37,1.33,5.73l22.27-79c-16.28-1-32.4,5.09-45.82,14.35s-35.57,32-35.57,32c-12.67,17.6-19.56,38.6-26.06,59.29-8.19,26.07-16.11,52.46-18.51,79.68-2.36,26.76.95,54.67,13.8,78.23a1,1,0,0,1,.15.68c.72,7.4,6.4,55.09,3.9,62.09a13.51,13.51,0,0,1-4.47,6.58c-3.26,2.35-8.37,2.47-11.18-.4s0-6.75,0-6.75-4.8,5-3.23,6.85a34,34,0,0,0,17.28,11,32.78,32.78,0,0,0,20.4-1.82c7.12-3,16.32-15.34,16.32-15.34l-5.82-46.83Z"/></g></g></g></svg>